<?xml version="1.0" encoding="UTF-8" standalone="no"?>
<!-- Created with Inkscape (http://www.inkscape.org/) -->

<svg
   xmlns:dc="http://purl.org/dc/elements/1.1/"
   xmlns:cc="http://creativecommons.org/ns#"
   xmlns:rdf="http://www.w3.org/1999/02/22-rdf-syntax-ns#"
   xmlns:svg="http://www.w3.org/2000/svg"
   xmlns="http://www.w3.org/2000/svg"
   xmlns:sodipodi="http://sodipodi.sourceforge.net/DTD/sodipodi-0.dtd"
   xmlns:inkscape="http://www.inkscape.org/namespaces/inkscape"
   width="217.90625"
   height="362.5"
   id="svg3902"
   version="1.1"
   inkscape:version="0.48.2 r9819"
   sodipodi:docname="m-logo.svg">
  <defs
     id="defs3904" />
  <sodipodi:namedview
     id="base"
     pagecolor="#ffffff"
     bordercolor="#666666"
     borderopacity="1.0"
     inkscape:pageopacity="0.0"
     inkscape:pageshadow="2"
     inkscape:zoom="0.35"
     inkscape:cx="306.79707"
     inkscape:cy="58.391427"
     inkscape:document-units="px"
     inkscape:current-layer="layer1"
     showgrid="false"
     inkscape:window-width="531"
     inkscape:window-height="423"
     inkscape:window-x="1368"
     inkscape:window-y="116"
     inkscape:window-maximized="0"
     fit-margin-top="0"
     fit-margin-left="0"
     fit-margin-right="0"
     fit-margin-bottom="0" />
  <metadata
     id="metadata3907">
    <rdf:RDF>
      <cc:Work
         rdf:about="">
        <dc:format>image/svg+xml</dc:format>
        <dc:type
           rdf:resource="http://purl.org/dc/dcmitype/StillImage" />
        <dc:title></dc:title>
      </cc:Work>
    </rdf:RDF>
  </metadata>
  <g
     inkscape:label="1. réteg"
     inkscape:groupmode="layer"
     id="layer1"
     transform="translate(-68.202933,-228.25361)">
    <g
       transform="translate(-59.047067,248.69111)"
       id="g3881">
      <path
         sodipodi:nodetypes="ccccccccccccccccccc"
         inkscape:connector-curvature="0"
         id="rect7916"
         d="m 131.47117,9.8754335 0,230.8437465 47.25,0 0,-127.59375 1.875,0 54.875,53.25 1.72481,0.54385 -1.00606,0.1749 -0.14365,-0.1749 0.8624,-0.54385 54.875,-53.25 1.875,0 0,127.59375 47.25,0 0,-230.8437465 -3.34375,0 -101.375,98.3749965 -101.375,-98.3749965 z"
         style="fill:#000000;fill-opacity:1;stroke:#000000;stroke-width:8.47296715;stroke-linecap:round;stroke-miterlimit:4;stroke-opacity:1;stroke-dasharray:none" />
      <path
         inkscape:connector-curvature="0"
         id="path8854"
         d="m 198.67515,159.00143 0,55.375 33.25,32.25 0,-55.375 -33.25,-32.25 z m 73.25,0 -33.25,32.25 0,55.375 33.25,-32.25 0,-55.375 z"
         style="fill:#000000;fill-opacity:1;stroke:#000000;stroke-width:7.9760313;stroke-linecap:round;stroke-miterlimit:4;stroke-opacity:1;stroke-dasharray:none" />
      <path
         style="fill:#000000;fill-opacity:1;stroke:#000000;stroke-width:7.9760313;stroke-linecap:round;stroke-miterlimit:4;stroke-opacity:1;stroke-dasharray:none"
         d="m 198.67515,-10.99857 0,55.375 33.25,32.25 0,-55.375 -33.25,-32.25 z m 73.25,0 -33.25,32.25 0,55.375 33.25,-32.25 0,-55.375 z"
         id="path8867"
         inkscape:connector-curvature="0" />
      <path
         style="fill:#000000;fill-opacity:1;stroke:#000000;stroke-width:7.9760313;stroke-linecap:round;stroke-miterlimit:4;stroke-opacity:1;stroke-dasharray:none"
         d="m 198.67515,245.00143 0,55.375 33.25,32.25 0,-55.375 -33.25,-32.25 z m 73.25,0 -33.25,32.25 0,55.375 33.25,-32.25 0,-55.375 z"
         id="path8869"
         inkscape:connector-curvature="0" />
    </g>
  </g>
</svg>
