<?xml version="1.0" encoding="UTF-8" standalone="no"?>
<!-- Created with Inkscape (http://www.inkscape.org/) -->

<svg
   xmlns:dc="http://purl.org/dc/elements/1.1/"
   xmlns:cc="http://creativecommons.org/ns#"
   xmlns:rdf="http://www.w3.org/1999/02/22-rdf-syntax-ns#"
   xmlns:svg="http://www.w3.org/2000/svg"
   xmlns="http://www.w3.org/2000/svg"
   xmlns:sodipodi="http://sodipodi.sourceforge.net/DTD/sodipodi-0.dtd"
   xmlns:inkscape="http://www.inkscape.org/namespaces/inkscape"
   width="330"
   height="107.20712"
   id="svg3007"
   version="1.1"
   inkscape:version="0.48.0 r9654"
   sodipodi:docname="mpclogo.svg"
   inkscape:export-filename="C:\eclipse-modeling-helios-SR1-incubation-win32\workspace\modembed.graphics\mpclogo.png"
   inkscape:export-xdpi="30"
   inkscape:export-ydpi="30">
  <defs
     id="defs3009">
    <linearGradient
       id="linearGradient3757">
      <stop
         style="stop-color:#000000;stop-opacity:1;"
         offset="0"
         id="stop3759" />
      <stop
         style="stop-color:#ffffff;stop-opacity:1;"
         offset="1"
         id="stop3761" />
    </linearGradient>
    <filter
       inkscape:collect="always"
       id="filter3869"
       x="-0.05580055"
       width="1.1116011"
       y="-0.23073737"
       height="1.4614747"
       color-interpolation-filters="sRGB">
      <feGaussianBlur
         inkscape:collect="always"
         stdDeviation="37.108649"
         id="feGaussianBlur3871" />
    </filter>
  </defs>
  <sodipodi:namedview
     id="base"
     pagecolor="#ffffff"
     bordercolor="#666666"
     borderopacity="1.0"
     inkscape:pageopacity="0.0"
     inkscape:pageshadow="2"
     inkscape:zoom="0.69280821"
     inkscape:cx="-63.148787"
     inkscape:cy="37.132908"
     inkscape:document-units="px"
     inkscape:current-layer="layer1"
     showgrid="false"
     inkscape:window-width="1336"
     inkscape:window-height="742"
     inkscape:window-x="1276"
     inkscape:window-y="-4"
     inkscape:window-maximized="1"
     fit-margin-top="0"
     fit-margin-left="0"
     fit-margin-right="0"
     fit-margin-bottom="0" />
  <metadata
     id="metadata3012">
    <rdf:RDF>
      <cc:Work
         rdf:about="">
        <dc:format>image/svg+xml</dc:format>
        <dc:type
           rdf:resource="http://purl.org/dc/dcmitype/StillImage" />
        <dc:title />
      </cc:Work>
    </rdf:RDF>
  </metadata>
  <g
     inkscape:label="1. réteg"
     inkscape:groupmode="layer"
     id="layer1"
     transform="translate(-210.14336,-430.85937)">
    <rect
       style="fill:#303030;fill-opacity:1;stroke:none"
       id="rect3015"
       width="330"
       height="107.20712"
       x="210.14336"
       y="430.85938" />
    <g
       id="g3873"
       transform="translate(2.8868018,-5.7736036)">
      <g
         style="fill:#ffffff;fill-opacity:1;stroke:none;filter:url(#filter3869)"
         transform="matrix(0.16959939,0,0,0.16959939,216.8615,458.78514)"
         id="g3843"
         inkscape:label="1. réteg">
        <g
           style="fill:#ffffff;fill-opacity:1;stroke:none"
           id="g3845">
          <g
             style="fill:#ffffff;fill-opacity:1;stroke:none"
             id="g3847"
             transform="translate(18.610108,-306.60908)">
            <path
               id="path3849"
               d="m 195.875,521 -13.0625,11.84375 12.3125,11.28125 -12.78125,11.5625 -12.5625,-11.5625 -13.0625,11.84375 12.5625,11.5625 -11.5,10.40625 -12.90625,-11.84375 -13.09375,11.8125 12.9375,11.875 -12.28125,11.125 11,10.09375 -12.3125,11.125 12.96875,11.9375 12.28125,-11.15625 11.875,10.90625 -12.4375,11.25 12.96875,11.90625 12.4375,-11.21875 13.75,12.625 -12.5,11.28125 12.96875,11.9375 12.46875,-11.3125 9.15625,8.40625 9.96875,-9.03125 11.75,10.8125 13.09375,-11.84375 -11.78125,-10.8125 11.5625,-10.46875 12.9375,11.90625 13.0625,-11.84375 -12.9375,-11.875 L 277.1875,624.25 290.09375,636.125 303.1875,624.28125 290.25,612.375 302.3125,601.46875 289,589.21875 301.40625,578 288.4375,566.09375 276.03125,577.3125 265.5,567.625 278.25,556.0625 265.28125,544.125 252.53125,555.6875 242,546.03125 254.53125,534.6875 241.5625,522.78125 l -12.5,11.34375 -11.375,-10.4375 -9.5,8.625 L 195.875,521 z"
               style="opacity:0.79820628;fill:#ffffff;fill-opacity:1;stroke:none"
               inkscape:connector-curvature="0" />
            <rect
               style="opacity:0.79820628;fill:#ffffff;fill-opacity:1;stroke:none"
               id="rect3851"
               width="95.706039"
               height="95.771011"
               x="544.81958"
               y="248.01007"
               transform="matrix(0.73622069,0.67674153,-0.74121044,0.67127273,0,0)" />
          </g>
          <path
             style="fill:#ffffff;fill-opacity:1;stroke:none"
             d="m 131.47117,9.8754335 0,230.8437465 47.25,0 0,-127.59375 1.875,0 54.875,53.25 1.72481,0.54385 -1.00606,0.1749 -0.14365,-0.1749 0.8624,-0.54385 54.875,-53.25 1.875,0 0,127.59375 47.25,0 0,-230.8437465 -3.34375,0 -101.375,98.3749965 -101.375,-98.3749965 z"
             id="path3853"
             inkscape:connector-curvature="0"
             sodipodi:nodetypes="ccccccccccccccccccc" />
          <path
             style="fill:#ffffff;fill-opacity:1;stroke:none"
             d="m 198.67515,159.00143 0,55.375 33.25,32.25 0,-55.375 -33.25,-32.25 z m 73.25,0 -33.25,32.25 0,55.375 33.25,-32.25 0,-55.375 z"
             id="path3855"
             inkscape:connector-curvature="0" />
          <path
             inkscape:connector-curvature="0"
             id="path3857"
             d="m 198.67515,-10.99857 0,55.375 33.25,32.25 0,-55.375 -33.25,-32.25 z m 73.25,0 -33.25,32.25 0,55.375 33.25,-32.25 0,-55.375 z"
             style="fill:#ffffff;fill-opacity:1;stroke:none" />
          <path
             inkscape:connector-curvature="0"
             id="path3859"
             d="m 198.67515,245.00143 0,55.375 33.25,32.25 0,-55.375 -33.25,-32.25 z m 73.25,0 -33.25,32.25 0,55.375 33.25,-32.25 0,-55.375 z"
             style="fill:#ffffff;fill-opacity:1;stroke:none" />
          <text
             xml:space="preserve"
             style="font-size:309.15945435px;font-style:normal;font-weight:normal;line-height:125%;letter-spacing:0px;word-spacing:0px;fill:#ffffff;fill-opacity:1;stroke:none;font-family:Sans"
             x="340.08273"
             y="234.0779"
             id="text3861"
             sodipodi:linespacing="125%"><tspan
               sodipodi:role="line"
               id="tspan3863"
               x="340.08273"
               y="234.0779">ODembed</tspan></text>
        </g>
      </g>
      <g
         inkscape:label="1. réteg"
         id="layer1-2"
         transform="matrix(0.16959939,0,0,0.16959939,216.8615,458.78514)">
        <g
           id="g2996">
          <g
             transform="translate(18.610108,-306.60908)"
             id="g8927">
            <path
               inkscape:connector-curvature="0"
               style="opacity:0.79820628;fill:#ffffff;fill-opacity:1;stroke:#000000;stroke-width:4.53255224;stroke-linecap:round;stroke-miterlimit:4;stroke-opacity:1;stroke-dasharray:none"
               d="m 195.875,521 -13.0625,11.84375 12.3125,11.28125 -12.78125,11.5625 -12.5625,-11.5625 -13.0625,11.84375 12.5625,11.5625 -11.5,10.40625 -12.90625,-11.84375 -13.09375,11.8125 12.9375,11.875 -12.28125,11.125 11,10.09375 -12.3125,11.125 12.96875,11.9375 12.28125,-11.15625 11.875,10.90625 -12.4375,11.25 12.96875,11.90625 12.4375,-11.21875 13.75,12.625 -12.5,11.28125 12.96875,11.9375 12.46875,-11.3125 9.15625,8.40625 9.96875,-9.03125 11.75,10.8125 13.09375,-11.84375 -11.78125,-10.8125 11.5625,-10.46875 12.9375,11.90625 13.0625,-11.84375 -12.9375,-11.875 L 277.1875,624.25 290.09375,636.125 303.1875,624.28125 290.25,612.375 302.3125,601.46875 289,589.21875 301.40625,578 288.4375,566.09375 276.03125,577.3125 265.5,567.625 278.25,556.0625 265.28125,544.125 252.53125,555.6875 242,546.03125 254.53125,534.6875 241.5625,522.78125 l -12.5,11.34375 -11.375,-10.4375 -9.5,8.625 L 195.875,521 z"
               id="rect8876" />
            <rect
               transform="matrix(0.73622069,0.67674153,-0.74121044,0.67127273,0,0)"
               y="248.01007"
               x="544.81958"
               height="95.771011"
               width="95.706039"
               id="rect8924"
               style="opacity:0.79820628;fill:#ffffff;fill-opacity:1;stroke:#000000;stroke-width:3.78167295;stroke-linecap:round;stroke-miterlimit:4;stroke-opacity:1;stroke-dasharray:none" />
          </g>
          <path
             sodipodi:nodetypes="ccccccccccccccccccc"
             inkscape:connector-curvature="0"
             id="rect7916"
             d="m 131.47117,9.8754335 0,230.8437465 47.25,0 0,-127.59375 1.875,0 54.875,53.25 1.72481,0.54385 -1.00606,0.1749 -0.14365,-0.1749 0.8624,-0.54385 54.875,-53.25 1.875,0 0,127.59375 47.25,0 0,-230.8437465 -3.34375,0 -101.375,98.3749965 -101.375,-98.3749965 z"
             style="fill:#000000;fill-opacity:1;stroke:#000000;stroke-width:8.47296715;stroke-linecap:round;stroke-miterlimit:4;stroke-opacity:1;stroke-dasharray:none" />
          <path
             inkscape:connector-curvature="0"
             id="path8854"
             d="m 198.67515,159.00143 0,55.375 33.25,32.25 0,-55.375 -33.25,-32.25 z m 73.25,0 -33.25,32.25 0,55.375 33.25,-32.25 0,-55.375 z"
             style="fill:#000000;fill-opacity:1;stroke:#000000;stroke-width:7.9760313;stroke-linecap:round;stroke-miterlimit:4;stroke-opacity:1;stroke-dasharray:none" />
          <path
             style="fill:#000000;fill-opacity:1;stroke:#000000;stroke-width:7.9760313;stroke-linecap:round;stroke-miterlimit:4;stroke-opacity:1;stroke-dasharray:none"
             d="m 198.67515,-10.99857 0,55.375 33.25,32.25 0,-55.375 -33.25,-32.25 z m 73.25,0 -33.25,32.25 0,55.375 33.25,-32.25 0,-55.375 z"
             id="path8867"
             inkscape:connector-curvature="0" />
          <path
             style="fill:#000000;fill-opacity:1;stroke:#000000;stroke-width:7.9760313;stroke-linecap:round;stroke-miterlimit:4;stroke-opacity:1;stroke-dasharray:none"
             d="m 198.67515,245.00143 0,55.375 33.25,32.25 0,-55.375 -33.25,-32.25 z m 73.25,0 -33.25,32.25 0,55.375 33.25,-32.25 0,-55.375 z"
             id="path8869"
             inkscape:connector-curvature="0" />
          <text
             sodipodi:linespacing="125%"
             id="text8931"
             y="234.0779"
             x="340.08273"
             style="font-size:309.15945435px;font-style:normal;font-weight:normal;line-height:125%;letter-spacing:0px;word-spacing:0px;fill:#000000;fill-opacity:1;stroke:none;font-family:Sans"
             xml:space="preserve"><tspan
               y="234.0779"
               x="340.08273"
               id="tspan8933"
               sodipodi:role="line">ODembed</tspan></text>
        </g>
      </g>
    </g>
  </g>
</svg>
