/* XPM */
static char * cpu_48_xpm[] = {
"48 48 198 2",
"  	c None",
". 	c #DBDBDB",
"+ 	c #D5D5D5",
"@ 	c #C6C6C6",
"# 	c #C9C9C9",
"$ 	c #EAEAEA",
"% 	c #E7E7E7",
"& 	c #E0E0E0",
"* 	c #CFCFCF",
"= 	c #E4E4E4",
"- 	c #E6E6E6",
"; 	c #C8C8C8",
"> 	c #D6D6D6",
", 	c #D3D3D3",
"' 	c #CBCBCB",
") 	c #D8D8D8",
"! 	c #BEBEBE",
"~ 	c #D9D9D9",
"{ 	c #A6A6A6",
"] 	c #C1C1C1",
"^ 	c #BFBFBF",
"/ 	c #A5A5A5",
"( 	c #C3C3C3",
"_ 	c #BDBDBD",
": 	c #CACACA",
"< 	c #B7B7B7",
"[ 	c #B1B1B1",
"} 	c #C7C7C7",
"| 	c #C0C0C0",
"1 	c #A7A7A7",
"2 	c #ADADAD",
"3 	c #ABABAB",
"4 	c #BCBCBC",
"5 	c #B0B0B0",
"6 	c #B9B9B9",
"7 	c #B2B2B2",
"8 	c #AAAAAA",
"9 	c #9B9B9B",
"0 	c #9C9C9C",
"a 	c #999999",
"b 	c #ACACAC",
"c 	c #AEAEAE",
"d 	c #A2A2A2",
"e 	c #A1A1A1",
"f 	c #AFAFAF",
"g 	c #929292",
"h 	c #8E8E8E",
"i 	c #969696",
"j 	c #8D8D8D",
"k 	c #A0A0A0",
"l 	c #9F9F9F",
"m 	c #8C8C8C",
"n 	c #898989",
"o 	c #9E9E9E",
"p 	c #909090",
"q 	c #8F8F8F",
"r 	c #A3A3A3",
"s 	c #A4A4A4",
"t 	c #979797",
"u 	c #959595",
"v 	c #919191",
"w 	c #3A3A3A",
"x 	c #4A4A4A",
"y 	c #575757",
"z 	c #5E5E5E",
"A 	c #5F5F5F",
"B 	c #5B5B5B",
"C 	c #595959",
"D 	c #555555",
"E 	c #545454",
"F 	c #535353",
"G 	c #525252",
"H 	c #4F4F4F",
"I 	c #4E4E4E",
"J 	c #4D4D4D",
"K 	c #4C4C4C",
"L 	c #494949",
"M 	c #484848",
"N 	c #464646",
"O 	c #454545",
"P 	c #3F3F3F",
"Q 	c #373737",
"R 	c #2E2E2E",
"S 	c #606060",
"T 	c #727272",
"U 	c #7B7B7B",
"V 	c #7E7E7E",
"W 	c #7D7D7D",
"X 	c #7C7C7C",
"Y 	c #7A7A7A",
"Z 	c #797979",
"` 	c #777777",
" .	c #757575",
"..	c #747474",
"+.	c #717171",
"@.	c #6F6F6F",
"#.	c #6D6D6D",
"$.	c #6C6C6C",
"%.	c #6A6A6A",
"&.	c #696969",
"*.	c #686868",
"=.	c #656565",
"-.	c #646464",
";.	c #636363",
">.	c #616161",
",.	c #5C5C5C",
"'.	c #585858",
").	c #B6B6B6",
"!.	c #868686",
"~.	c #939393",
"{.	c #8A8A8A",
"].	c #888888",
"^.	c #858585",
"/.	c #828282",
"(.	c #818181",
"_.	c #7F7F7F",
":.	c #767676",
"<.	c #6E6E6E",
"[.	c #838383",
"}.	c #B8B8B8",
"|.	c #CECECE",
"1.	c #CCCCCC",
"2.	c #D7D7D7",
"3.	c #9D9D9D",
"4.	c #9A9A9A",
"5.	c #848484",
"6.	c #808080",
"7.	c #5A5A5A",
"8.	c #CDCDCD",
"9.	c #949494",
"0.	c #989898",
"a.	c #8B8B8B",
"b.	c #878787",
"c.	c #707070",
"d.	c #787878",
"e.	c #676767",
"f.	c #D1D1D1",
"g.	c #737373",
"h.	c #A8A8A8",
"i.	c #626262",
"j.	c #D2D2D2",
"k.	c #E5E5E5",
"l.	c #C2C2C2",
"m.	c #5D5D5D",
"n.	c #434343",
"o.	c #515151",
"p.	c #505050",
"q.	c #414141",
"r.	c #6B6B6B",
"s.	c #404040",
"t.	c #C5C5C5",
"u.	c #E1E1E1",
"v.	c #C4C4C4",
"w.	c #E8E8E8",
"x.	c #565656",
"y.	c #666666",
"z.	c #3C3C3C",
"A.	c #383838",
"B.	c #444444",
"C.	c #363636",
"D.	c #DCDCDC",
"E.	c #343434",
"F.	c #B5B5B5",
"G.	c #3E3E3E",
"H.	c #313131",
"I.	c #4B4B4B",
"J.	c #3B3B3B",
"K.	c #303030",
"L.	c #2F2F2F",
"M.	c #B3B3B3",
"N.	c #E2E2E2",
"O.	c #B4B4B4",
"P.	c #474747",
"Q.	c #2D2D2D",
"R.	c #DEDEDE",
"S.	c #333333",
"T.	c #2A2A2A",
"U.	c #323232",
"V.	c #292929",
"W.	c #272727",
"X.	c #262626",
"Y.	c #222222",
"Z.	c #E3E3E3",
"`.	c #BBBBBB",
" +	c #424242",
".+	c #3D3D3D",
"++	c #393939",
"@+	c #232323",
"#+	c #1D1D1D",
"$+	c #353535",
"%+	c #2B2B2B",
"&+	c #282828",
"*+	c #202020",
"=+	c #1C1C1C",
"-+	c #161616",
";+	c #A9A9A9",
">+	c #DADADA",
",+	c #E9E9E9",
"                    .         +                     @         #         #                       ",
"                    $         %         + &       * =       @ -       ; %                       ",
"                    >         ,         ' )       @ )       ! ~       ! ~                       ",
"                  { ] ^     / ^ (       _ : ]     < : ]     [ } ^     [ @ |                     ",
"                  1 2 |     1 3 !       < ! 4     5 6 |     3 7 ]     8 7 |                     ",
"                  9 9 7     0 a 2       b [ c     d b [     0 d [     9 e f                     ",
"                  g h {     i j k       0 l l     g a k     m h k     n j o                     ",
"                  p q d     i n a     g r s l     t l o     h u 9     n v t                     ",
"                w x y z A A A z z B C C C y D E F G G H I J K K L L M N O P Q R                 ",
"                K S T U V V W X Y Z `  ...T +.@.#.$.%.&.*.=.-.;.>.S z ,.'.F M w                 ",
"  > : ^ ).8 0 / C +.!.v u u ~.g p j m {.].!.^./.(._.W U Z ` :...T +.<.$.*.S E N [.p s }.|.1.>   ",
": = 2.: )./ u 9 S Y v 0 k k o 3.4.a i u g p h j {.n !.5./.6.V W Y Z :...@.*.7.x  ./.v { ^ , = 8.",
"      ! ( }.f 7 >.W 9.k s s d k o 0 4.0.i ~.g q j a.n b.^./.(.V W U Z  .+.&.,.K [.a.u s {       ",
"                >.W ~.l r r d l 3.9 a t u g v h m {.].!.5.(.6.W U Z `  .c.&.B x                 ",
"                >.X g o d d k o 9 4.t u ~.v q j {.n !.^./.6.V X Z d. .T <.e.C M                 ",
"  f.( < [ s t o A Z p 9 l l o 9 a t u g v h j {.].!.5./.6.W X Z `  .g.c.$.-.y M V h d }.' } f.  ",
"} = ) # < h.0.l z d.j a 3.3.9 a i u g p h m {.].^.5.(.6.W U Z `  .g.+.<.&.i.D N +.6.v 1 ^ j.k.* ",
"      l._ 2 k o m.:.m i 4.4.a i 9.g p j m n ].^.[.(._.W U Z `  .T +.<.$.e.S F n.X !.9.r /       ",
"                B ..n 9.0.0.i 9.g p j a.n b.^.[.(._.W Y Z :. .T c.<.$.&.=.z o.n.                ",
"                7.T b.g i i 9.g q j a.n b.^.[.(.V W Y d.:...T c.#.$.&.e.;.,.p.q.                ",
"      { 1 0 ~.t C +.^.p ~.~.g q j a.n !.^./.(.V X Y d. ...+.@.#.r.&.e.-.S C J s.6.~.{ 4 l.      ",
"t.u., v.7 e q ~.y @.[.j v p h j {.n !.5./.6.V X Z d. .g.+.@.#.r.&.e.-.i.z y K P <.V g h.^ , w.2.",
"  ~ * ' ; 4 8 3 x.#.(.a.h j m {.].!.5.(.6.W X Z `  .g.+.@.#.%.&.y.-.i.S ,.D L z. ./.9.r /       ",
"            a 0 E $._.n m a.n ].^.5.(._.W U Z `  .g.+.<.#.%.*.y.-.>.S m.C F M w                 ",
"                F &.W !.n n ].^.[.(._.W U Z `  .T +.<.$.%.*.=.-.>.A m.7.y p.O A.                ",
"        0.9.p g o.*.Y 5.b.b.^.[.(._.W Y Z :...T c.<.$.&.*.=.;.>.A ,.B '.E I B.Q (.u b | !       ",
"  . |.| / ~.[.[.o.y.Z /.^.^.[.(.V W Y d.:...+.c.#.$.&.e.=.;.S A ,.7.'.D G K q.C.r.W ~.8 | + $ D.",
"  & > 8.6 2 a 0 p.-.:.6././.(.V X Y d. ...+.@.#.r.&.e.-.;.S z ,.7.'.x.F p.L s.E.$.X h r 8       ",
"        F.c { l J ;. .W 6.6.V X Z d. .g.+.@.#.r.&.y.-.i.S z ,.7.'.D E p.J M G.H.                ",
"                K S T U W W U Z `  .g.+.@.#.%.&.y.-.i.S m.,.C '.D F o.I I.O J.K.                ",
"              !.I.A c.Z U Y Z `  .g.+.<.#.%.*.y.-.>.S m.B C y D F p.H K M n.w L. .n 4.b         ",
"  ) ' _ 3 3.a.j L m.<.:.Z d.:. .T +.<.$.%.*.=.-.>.A m.B '.y E F p.I K L N s.Q R $./.4.M.|.+ N.  ",
"  % ~ 1.O.k j n L ,.$...:. ...T c.#.$.&.*.=.;.>.A ,.7.y x.F o.H I I.x P.n.P C.Q.z T n e _ |.R.# ",
"        ! M.1 o P.7.&.+...g.+.c.#.r.&.e.=.;.S A ,.,.!.!.D  .4.p G ..y P.6.z.S.T.-.g.5.i         ",
"                B.'.*.@.+.+.@.#.r.&.e.-.i.S z ,.'.3 6.h _.l 5.{.s d y.L |.w U.V.                ",
"                n.x.=.#.<.#.$.%.*.=.-.>.S m.B C D D.I I K o _ # !.e =.P.1.Q L.W.7.              ",
"  > : ! [ r q p q.F >.&.%.&.*.y.-.>.S m.,.7.'.D G | A +.V o Y K q.0.:.F ] E.Q.X.&.(.0 F.8.* ~   ",
": = ~ ' M.e n !.G.J B >.;.i.S S m.B C y D E o.p.J S 3 2 I /.z P G.H 6 | A K.V.Y.m.g.m s ! f.Z.8.",
"      `.| [ r 0.C.B.p.D y x.E E o.p.I K x L P.O B. +P .+z.w ++Q C.S.H.L.Q.T.@+#+e.Y h e         ",
"                T.$+P B.O B.B. +s.P G.z.J.w A.Q $+S.S.H.L.L.Q.%+T.&+W.X.@+*+=+-+                ",
"                  ` d.5.    ` +.Z     S d.6.V     r.U Y     -.c.`     A r...                    ",
"                  !.[.0.    ].5.q       V h g      .^.~.    ..W v     c.Y q                     ",
"                  i i 3     i 0.r       u 1 1     j o 8     {.u 8     n ~.;+                    ",
"                  1 b _     / 2 4       3 `.4     s M._     d 2 ]     k 8 ^                     ",
"                  / ] ^     ;+v.(       4 # 4     M.} `.    f @ 4     5 v.!                     ",
"                    >         > !       : ~       v.>+      }..       6 >+                      ",
"                    ,+        w.:       + =       8.-       | ,+      | $                       ",
"                    .         f.          ;         1.        *         *                       "};
