<?xml version="1.0" encoding="UTF-8" standalone="no"?>
<!-- Created with Inkscape (http://www.inkscape.org/) -->

<svg
   xmlns:dc="http://purl.org/dc/elements/1.1/"
   xmlns:cc="http://creativecommons.org/ns#"
   xmlns:rdf="http://www.w3.org/1999/02/22-rdf-syntax-ns#"
   xmlns:svg="http://www.w3.org/2000/svg"
   xmlns="http://www.w3.org/2000/svg"
   xmlns:xlink="http://www.w3.org/1999/xlink"
   xmlns:sodipodi="http://sodipodi.sourceforge.net/DTD/sodipodi-0.dtd"
   xmlns:inkscape="http://www.inkscape.org/namespaces/inkscape"
   width="226.18199"
   height="224.79485"
   id="svg2"
   version="1.1"
   inkscape:version="0.48.0 r9654"
   sodipodi:docname="cpu.svg"
   inkscape:export-filename="C:\eclipse-modeling-helios-SR1-incubation-win32\gitrepos\modembed\resources\modembed.graphics\cpu_35.png"
   inkscape:export-xdpi="13.93"
   inkscape:export-ydpi="13.93">
  <defs
     id="defs4">
    <linearGradient
       id="linearGradient3757">
      <stop
         style="stop-color:#000000;stop-opacity:1;"
         offset="0"
         id="stop3759" />
      <stop
         style="stop-color:#ffffff;stop-opacity:1;"
         offset="1"
         id="stop3761" />
    </linearGradient>
    <linearGradient
       inkscape:collect="always"
       xlink:href="#linearGradient3757"
       id="linearGradient3763"
       x1="485.71429"
       y1="665.93365"
       x2="290"
       y2="440.21936"
       gradientUnits="userSpaceOnUse"
       gradientTransform="translate(-176,-93.142552)" />
    <filter
       inkscape:collect="always"
       id="filter3769"
       x="-0.14273128"
       width="1.2854626"
       y="-0.14273128"
       height="1.2854626"
       color-interpolation-filters="sRGB">
      <feGaussianBlur
         inkscape:collect="always"
         stdDeviation="8.9207048"
         id="feGaussianBlur3771" />
    </filter>
    <filter
       inkscape:collect="always"
       id="filter3801"
       x="-0.078156412"
       width="1.1563128"
       y="-0.20967159"
       height="1.4193432"
       color-interpolation-filters="sRGB">
      <feGaussianBlur
         inkscape:collect="always"
         stdDeviation="1.810738"
         id="feGaussianBlur3803" />
    </filter>
    <filter
       inkscape:collect="always"
       id="filter3840"
       x="-0.088105731"
       width="1.1762115"
       y="-0.26431718"
       height="1.5286344"
       color-interpolation-filters="sRGB">
      <feGaussianBlur
         inkscape:collect="always"
         stdDeviation="1.3009361"
         id="feGaussianBlur3842" />
    </filter>
    <linearGradient
       inkscape:collect="always"
       xlink:href="#linearGradient3757"
       id="linearGradient3910"
       gradientUnits="userSpaceOnUse"
       gradientTransform="translate(-0.09981285,0.10024547)"
       x1="342.92102"
       y1="414.13577"
       x2="374.88431"
       y2="385.64716" />
    <linearGradient
       inkscape:collect="always"
       xlink:href="#linearGradient3757"
       id="linearGradient3912"
       gradientUnits="userSpaceOnUse"
       gradientTransform="translate(-0.09981285,0.10024547)"
       x1="342.92102"
       y1="414.13577"
       x2="374.88431"
       y2="385.64716" />
    <linearGradient
       inkscape:collect="always"
       xlink:href="#linearGradient3757"
       id="linearGradient3914"
       gradientUnits="userSpaceOnUse"
       gradientTransform="translate(-0.09981285,0.10024547)"
       x1="342.92102"
       y1="414.13577"
       x2="374.88431"
       y2="385.64716" />
    <linearGradient
       inkscape:collect="always"
       xlink:href="#linearGradient3757"
       id="linearGradient3916"
       gradientUnits="userSpaceOnUse"
       gradientTransform="translate(-0.09981285,0.10024547)"
       x1="342.92102"
       y1="414.13577"
       x2="374.88431"
       y2="385.64716" />
    <linearGradient
       inkscape:collect="always"
       xlink:href="#linearGradient3757"
       id="linearGradient3918"
       gradientUnits="userSpaceOnUse"
       gradientTransform="translate(-0.09981285,0.10024547)"
       x1="342.92102"
       y1="414.13577"
       x2="374.88431"
       y2="385.64716" />
    <linearGradient
       inkscape:collect="always"
       xlink:href="#linearGradient3757"
       id="linearGradient3920"
       gradientUnits="userSpaceOnUse"
       gradientTransform="translate(-0.09981285,0.10024547)"
       x1="342.92102"
       y1="414.13577"
       x2="374.88431"
       y2="385.64716" />
    <linearGradient
       inkscape:collect="always"
       xlink:href="#linearGradient3757"
       id="linearGradient3960"
       gradientUnits="userSpaceOnUse"
       gradientTransform="translate(-0.09981285,0.10024547)"
       x1="342.92102"
       y1="414.13577"
       x2="374.88431"
       y2="385.64716" />
    <linearGradient
       inkscape:collect="always"
       xlink:href="#linearGradient3757"
       id="linearGradient3962"
       gradientUnits="userSpaceOnUse"
       gradientTransform="translate(-0.09981285,0.10024547)"
       x1="342.92102"
       y1="414.13577"
       x2="374.88431"
       y2="385.64716" />
    <linearGradient
       inkscape:collect="always"
       xlink:href="#linearGradient3757"
       id="linearGradient3964"
       gradientUnits="userSpaceOnUse"
       gradientTransform="translate(-0.09981285,0.10024547)"
       x1="342.92102"
       y1="414.13577"
       x2="374.88431"
       y2="385.64716" />
    <linearGradient
       inkscape:collect="always"
       xlink:href="#linearGradient3757"
       id="linearGradient3966"
       gradientUnits="userSpaceOnUse"
       gradientTransform="translate(-0.09981285,0.10024547)"
       x1="342.92102"
       y1="414.13577"
       x2="374.88431"
       y2="385.64716" />
    <linearGradient
       inkscape:collect="always"
       xlink:href="#linearGradient3757"
       id="linearGradient3968"
       gradientUnits="userSpaceOnUse"
       gradientTransform="translate(-0.09981285,0.10024547)"
       x1="342.92102"
       y1="414.13577"
       x2="374.88431"
       y2="385.64716" />
    <linearGradient
       inkscape:collect="always"
       xlink:href="#linearGradient3757"
       id="linearGradient3970"
       gradientUnits="userSpaceOnUse"
       gradientTransform="translate(-0.09981285,0.10024547)"
       x1="342.92102"
       y1="414.13577"
       x2="374.88431"
       y2="385.64716" />
    <linearGradient
       inkscape:collect="always"
       xlink:href="#linearGradient3757"
       id="linearGradient4010"
       gradientUnits="userSpaceOnUse"
       gradientTransform="translate(-0.09981285,0.10024547)"
       x1="342.92102"
       y1="414.13577"
       x2="374.88431"
       y2="385.64716" />
    <linearGradient
       inkscape:collect="always"
       xlink:href="#linearGradient3757"
       id="linearGradient4012"
       gradientUnits="userSpaceOnUse"
       gradientTransform="translate(-0.09981285,0.10024547)"
       x1="342.92102"
       y1="414.13577"
       x2="374.88431"
       y2="385.64716" />
    <linearGradient
       inkscape:collect="always"
       xlink:href="#linearGradient3757"
       id="linearGradient4014"
       gradientUnits="userSpaceOnUse"
       gradientTransform="translate(-0.09981285,0.10024547)"
       x1="342.92102"
       y1="414.13577"
       x2="374.88431"
       y2="385.64716" />
    <linearGradient
       inkscape:collect="always"
       xlink:href="#linearGradient3757"
       id="linearGradient4016"
       gradientUnits="userSpaceOnUse"
       gradientTransform="translate(-0.09981285,0.10024547)"
       x1="342.92102"
       y1="414.13577"
       x2="374.88431"
       y2="385.64716" />
    <linearGradient
       inkscape:collect="always"
       xlink:href="#linearGradient3757"
       id="linearGradient4018"
       gradientUnits="userSpaceOnUse"
       gradientTransform="translate(-0.09981285,0.10024547)"
       x1="342.92102"
       y1="414.13577"
       x2="374.88431"
       y2="385.64716" />
    <linearGradient
       inkscape:collect="always"
       xlink:href="#linearGradient3757"
       id="linearGradient4020"
       gradientUnits="userSpaceOnUse"
       gradientTransform="translate(-0.09981285,0.10024547)"
       x1="342.92102"
       y1="414.13577"
       x2="374.88431"
       y2="385.64716" />
    <linearGradient
       inkscape:collect="always"
       xlink:href="#linearGradient3757"
       id="linearGradient4074"
       gradientUnits="userSpaceOnUse"
       gradientTransform="translate(-0.09981285,0.10024547)"
       x1="342.92102"
       y1="414.13577"
       x2="374.88431"
       y2="385.64716" />
    <linearGradient
       inkscape:collect="always"
       xlink:href="#linearGradient3757"
       id="linearGradient4076"
       gradientUnits="userSpaceOnUse"
       gradientTransform="translate(-0.09981285,0.10024547)"
       x1="342.92102"
       y1="414.13577"
       x2="374.88431"
       y2="385.64716" />
    <linearGradient
       inkscape:collect="always"
       xlink:href="#linearGradient3757"
       id="linearGradient4078"
       gradientUnits="userSpaceOnUse"
       gradientTransform="translate(-0.09981285,0.10024547)"
       x1="342.92102"
       y1="414.13577"
       x2="374.88431"
       y2="385.64716" />
    <linearGradient
       inkscape:collect="always"
       xlink:href="#linearGradient3757"
       id="linearGradient4080"
       gradientUnits="userSpaceOnUse"
       gradientTransform="translate(-0.09981285,0.10024547)"
       x1="342.92102"
       y1="414.13577"
       x2="374.88431"
       y2="385.64716" />
    <linearGradient
       inkscape:collect="always"
       xlink:href="#linearGradient3757"
       id="linearGradient4082"
       gradientUnits="userSpaceOnUse"
       gradientTransform="translate(-0.09981285,0.10024547)"
       x1="342.92102"
       y1="414.13577"
       x2="374.88431"
       y2="385.64716" />
    <linearGradient
       inkscape:collect="always"
       xlink:href="#linearGradient3757"
       id="linearGradient4084"
       gradientUnits="userSpaceOnUse"
       gradientTransform="translate(-0.09981285,0.10024547)"
       x1="342.92102"
       y1="414.13577"
       x2="374.88431"
       y2="385.64716" />
  </defs>
  <sodipodi:namedview
     id="base"
     pagecolor="#ffffff"
     bordercolor="#666666"
     borderopacity="1.0"
     inkscape:pageopacity="0.0"
     inkscape:pageshadow="2"
     inkscape:zoom="1.6967704"
     inkscape:cx="113.091"
     inkscape:cy="113.41155"
     inkscape:document-units="px"
     inkscape:current-layer="layer1"
     showgrid="false"
     inkscape:window-width="1336"
     inkscape:window-height="742"
     inkscape:window-x="26"
     inkscape:window-y="-4"
     inkscape:window-maximized="1"
     fit-margin-top="0"
     fit-margin-left="0"
     fit-margin-right="0"
     fit-margin-bottom="0" />
  <metadata
     id="metadata7">
    <rdf:RDF>
      <cc:Work
         rdf:about="">
        <dc:format>image/svg+xml</dc:format>
        <dc:type
           rdf:resource="http://purl.org/dc/dcmitype/StillImage" />
        <dc:title></dc:title>
      </cc:Work>
    </rdf:RDF>
  </metadata>
  <g
     inkscape:label="1. réteg"
     inkscape:groupmode="layer"
     id="layer1"
     transform="translate(-90.499996,-327.56734)">
    <g
       transform="matrix(0,1,-1,0,641.99346,235.68019)"
       id="g4036">
      <g
         id="g4038"
         transform="translate(-69.215443,8.159781)">
        <path
           id="path4040"
           d="m 347.4375,389.46875 0,11.8125 22.21875,0 0,-2.78125 13.21875,0 0,-5.53125 -13.21875,0 0,-3.5 -22.21875,0 z"
           style="fill:#ffffff;fill-opacity:1;stroke:#000000;stroke-width:0.5;stroke-miterlimit:4;stroke-opacity:1;stroke-dasharray:none"
           inkscape:connector-curvature="0" />
        <path
           inkscape:connector-curvature="0"
           style="opacity:0.98654713;fill:url(#linearGradient4074);fill-opacity:1;stroke-width:10;stroke-miterlimit:4;stroke-dasharray:none;filter:url(#filter3840)"
           d="m 347.33769,389.569 0,11.8125 22.21875,0 0,-2.78125 13.21875,0 0,-5.53125 -13.21875,0 0,-3.5 -22.21875,0 z"
           id="path4042" />
      </g>
      <g
         id="g4044"
         transform="translate(-69.215443,-15.464936)">
        <path
           style="fill:#ffffff;fill-opacity:1;stroke:#000000;stroke-width:0.5;stroke-miterlimit:4;stroke-opacity:1;stroke-dasharray:none"
           d="m 347.4375,389.46875 0,11.8125 22.21875,0 0,-2.78125 13.21875,0 0,-5.53125 -13.21875,0 0,-3.5 -22.21875,0 z"
           id="path4046"
           inkscape:connector-curvature="0" />
        <path
           id="path4048"
           d="m 347.33769,389.569 0,11.8125 22.21875,0 0,-2.78125 13.21875,0 0,-5.53125 -13.21875,0 0,-3.5 -22.21875,0 z"
           style="opacity:0.98654713;fill:url(#linearGradient4076);fill-opacity:1;stroke-width:10;stroke-miterlimit:4;stroke-dasharray:none;filter:url(#filter3840)"
           inkscape:connector-curvature="0" />
      </g>
      <g
         transform="translate(-69.215443,32.159781)"
         id="g4050">
        <path
           inkscape:connector-curvature="0"
           style="fill:#ffffff;fill-opacity:1;stroke:#000000;stroke-width:0.5;stroke-miterlimit:4;stroke-opacity:1;stroke-dasharray:none"
           d="m 347.4375,389.46875 0,11.8125 22.21875,0 0,-2.78125 13.21875,0 0,-5.53125 -13.21875,0 0,-3.5 -22.21875,0 z"
           id="path4052" />
        <path
           id="path4054"
           d="m 347.33769,389.569 0,11.8125 22.21875,0 0,-2.78125 13.21875,0 0,-5.53125 -13.21875,0 0,-3.5 -22.21875,0 z"
           style="opacity:0.98654713;fill:url(#linearGradient4078);fill-opacity:1;stroke-width:10;stroke-miterlimit:4;stroke-dasharray:none;filter:url(#filter3840)"
           inkscape:connector-curvature="0" />
      </g>
      <g
         id="g4056"
         transform="translate(-69.215443,56.159781)">
        <path
           id="path4058"
           d="m 347.4375,389.46875 0,11.8125 22.21875,0 0,-2.78125 13.21875,0 0,-5.53125 -13.21875,0 0,-3.5 -22.21875,0 z"
           style="fill:#ffffff;fill-opacity:1;stroke:#000000;stroke-width:0.5;stroke-miterlimit:4;stroke-opacity:1;stroke-dasharray:none"
           inkscape:connector-curvature="0" />
        <path
           inkscape:connector-curvature="0"
           style="opacity:0.98654713;fill:url(#linearGradient4080);fill-opacity:1;stroke-width:10;stroke-miterlimit:4;stroke-dasharray:none;filter:url(#filter3840)"
           d="m 347.33769,389.569 0,11.8125 22.21875,0 0,-2.78125 13.21875,0 0,-5.53125 -13.21875,0 0,-3.5 -22.21875,0 z"
           id="path4060" />
      </g>
      <g
         transform="translate(-69.215443,82.159781)"
         id="g4062">
        <path
           inkscape:connector-curvature="0"
           style="fill:#ffffff;fill-opacity:1;stroke:#000000;stroke-width:0.5;stroke-miterlimit:4;stroke-opacity:1;stroke-dasharray:none"
           d="m 347.4375,389.46875 0,11.8125 22.21875,0 0,-2.78125 13.21875,0 0,-5.53125 -13.21875,0 0,-3.5 -22.21875,0 z"
           id="path4064" />
        <path
           id="path4066"
           d="m 347.33769,389.569 0,11.8125 22.21875,0 0,-2.78125 13.21875,0 0,-5.53125 -13.21875,0 0,-3.5 -22.21875,0 z"
           style="opacity:0.98654713;fill:url(#linearGradient4082);fill-opacity:1;stroke-width:10;stroke-miterlimit:4;stroke-dasharray:none;filter:url(#filter3840)"
           inkscape:connector-curvature="0" />
      </g>
      <g
         id="g4068"
         transform="translate(-69.215443,106.15978)">
        <path
           id="path4070"
           d="m 347.4375,389.46875 0,11.8125 22.21875,0 0,-2.78125 13.21875,0 0,-5.53125 -13.21875,0 0,-3.5 -22.21875,0 z"
           style="fill:#ffffff;fill-opacity:1;stroke:#000000;stroke-width:0.5;stroke-miterlimit:4;stroke-opacity:1;stroke-dasharray:none"
           inkscape:connector-curvature="0" />
        <path
           inkscape:connector-curvature="0"
           style="opacity:0.98654713;fill:url(#linearGradient4084);fill-opacity:1;stroke-width:10;stroke-miterlimit:4;stroke-dasharray:none;filter:url(#filter3840)"
           d="m 347.33769,389.569 0,11.8125 22.21875,0 0,-2.78125 13.21875,0 0,-5.53125 -13.21875,0 0,-3.5 -22.21875,0 z"
           id="path4072" />
      </g>
    </g>
    <g
       id="g3890"
       transform="translate(-3.9999999e-6,0)">
      <g
         transform="translate(-69.215443,8.159781)"
         id="g3844">
        <path
           inkscape:connector-curvature="0"
           style="fill:#ffffff;fill-opacity:1;stroke:#000000;stroke-width:0.5;stroke-miterlimit:4;stroke-opacity:1;stroke-dasharray:none"
           d="m 347.4375,389.46875 0,11.8125 22.21875,0 0,-2.78125 13.21875,0 0,-5.53125 -13.21875,0 0,-3.5 -22.21875,0 z"
           id="rect3805" />
        <path
           id="path3818"
           d="m 347.33769,389.569 0,11.8125 22.21875,0 0,-2.78125 13.21875,0 0,-5.53125 -13.21875,0 0,-3.5 -22.21875,0 z"
           style="opacity:0.98654713;fill:url(#linearGradient3910);fill-opacity:1;stroke-width:10;stroke-miterlimit:4;stroke-dasharray:none;filter:url(#filter3840)"
           inkscape:connector-curvature="0" />
      </g>
      <g
         transform="translate(-69.215443,-15.464936)"
         id="g3848">
        <path
           inkscape:connector-curvature="0"
           id="path3850"
           d="m 347.4375,389.46875 0,11.8125 22.21875,0 0,-2.78125 13.21875,0 0,-5.53125 -13.21875,0 0,-3.5 -22.21875,0 z"
           style="fill:#ffffff;fill-opacity:1;stroke:#000000;stroke-width:0.5;stroke-miterlimit:4;stroke-opacity:1;stroke-dasharray:none" />
        <path
           inkscape:connector-curvature="0"
           style="opacity:0.98654713;fill:url(#linearGradient3912);fill-opacity:1;stroke-width:10;stroke-miterlimit:4;stroke-dasharray:none;filter:url(#filter3840)"
           d="m 347.33769,389.569 0,11.8125 22.21875,0 0,-2.78125 13.21875,0 0,-5.53125 -13.21875,0 0,-3.5 -22.21875,0 z"
           id="path3852" />
      </g>
      <g
         id="g3858"
         transform="translate(-69.215443,32.159781)">
        <path
           id="path3860"
           d="m 347.4375,389.46875 0,11.8125 22.21875,0 0,-2.78125 13.21875,0 0,-5.53125 -13.21875,0 0,-3.5 -22.21875,0 z"
           style="fill:#ffffff;fill-opacity:1;stroke:#000000;stroke-width:0.5;stroke-miterlimit:4;stroke-opacity:1;stroke-dasharray:none"
           inkscape:connector-curvature="0" />
        <path
           inkscape:connector-curvature="0"
           style="opacity:0.98654713;fill:url(#linearGradient3914);fill-opacity:1;stroke-width:10;stroke-miterlimit:4;stroke-dasharray:none;filter:url(#filter3840)"
           d="m 347.33769,389.569 0,11.8125 22.21875,0 0,-2.78125 13.21875,0 0,-5.53125 -13.21875,0 0,-3.5 -22.21875,0 z"
           id="path3862" />
      </g>
      <g
         transform="translate(-69.215443,56.159781)"
         id="g3866">
        <path
           inkscape:connector-curvature="0"
           style="fill:#ffffff;fill-opacity:1;stroke:#000000;stroke-width:0.5;stroke-miterlimit:4;stroke-opacity:1;stroke-dasharray:none"
           d="m 347.4375,389.46875 0,11.8125 22.21875,0 0,-2.78125 13.21875,0 0,-5.53125 -13.21875,0 0,-3.5 -22.21875,0 z"
           id="path3868" />
        <path
           id="path3870"
           d="m 347.33769,389.569 0,11.8125 22.21875,0 0,-2.78125 13.21875,0 0,-5.53125 -13.21875,0 0,-3.5 -22.21875,0 z"
           style="opacity:0.98654713;fill:url(#linearGradient3916);fill-opacity:1;stroke-width:10;stroke-miterlimit:4;stroke-dasharray:none;filter:url(#filter3840)"
           inkscape:connector-curvature="0" />
      </g>
      <g
         id="g3874"
         transform="translate(-69.215443,82.159781)">
        <path
           id="path3876"
           d="m 347.4375,389.46875 0,11.8125 22.21875,0 0,-2.78125 13.21875,0 0,-5.53125 -13.21875,0 0,-3.5 -22.21875,0 z"
           style="fill:#ffffff;fill-opacity:1;stroke:#000000;stroke-width:0.5;stroke-miterlimit:4;stroke-opacity:1;stroke-dasharray:none"
           inkscape:connector-curvature="0" />
        <path
           inkscape:connector-curvature="0"
           style="opacity:0.98654713;fill:url(#linearGradient3918);fill-opacity:1;stroke-width:10;stroke-miterlimit:4;stroke-dasharray:none;filter:url(#filter3840)"
           d="m 347.33769,389.569 0,11.8125 22.21875,0 0,-2.78125 13.21875,0 0,-5.53125 -13.21875,0 0,-3.5 -22.21875,0 z"
           id="path3878" />
      </g>
      <g
         transform="translate(-69.215443,106.15978)"
         id="g3882">
        <path
           inkscape:connector-curvature="0"
           style="fill:#ffffff;fill-opacity:1;stroke:#000000;stroke-width:0.5;stroke-miterlimit:4;stroke-opacity:1;stroke-dasharray:none"
           d="m 347.4375,389.46875 0,11.8125 22.21875,0 0,-2.78125 13.21875,0 0,-5.53125 -13.21875,0 0,-3.5 -22.21875,0 z"
           id="path3884" />
        <path
           id="path3886"
           d="m 347.33769,389.569 0,11.8125 22.21875,0 0,-2.78125 13.21875,0 0,-5.53125 -13.21875,0 0,-3.5 -22.21875,0 z"
           style="opacity:0.98654713;fill:url(#linearGradient3920);fill-opacity:1;stroke-width:10;stroke-miterlimit:4;stroke-dasharray:none;filter:url(#filter3840)"
           inkscape:connector-curvature="0" />
      </g>
    </g>
    <g
       transform="matrix(-1,0,0,-1,407.18199,881.64535)"
       id="g3922">
      <g
         id="g3924"
         transform="translate(-69.215443,8.159781)">
        <path
           id="path3926"
           d="m 347.4375,389.46875 0,11.8125 22.21875,0 0,-2.78125 13.21875,0 0,-5.53125 -13.21875,0 0,-3.5 -22.21875,0 z"
           style="fill:#ffffff;fill-opacity:1;stroke:#000000;stroke-width:0.5;stroke-miterlimit:4;stroke-opacity:1;stroke-dasharray:none"
           inkscape:connector-curvature="0" />
        <path
           inkscape:connector-curvature="0"
           style="opacity:0.98654713;fill:url(#linearGradient3960);fill-opacity:1;stroke-width:10;stroke-miterlimit:4;stroke-dasharray:none;filter:url(#filter3840)"
           d="m 347.33769,389.569 0,11.8125 22.21875,0 0,-2.78125 13.21875,0 0,-5.53125 -13.21875,0 0,-3.5 -22.21875,0 z"
           id="path3928" />
      </g>
      <g
         id="g3930"
         transform="translate(-69.215443,-15.464936)">
        <path
           style="fill:#ffffff;fill-opacity:1;stroke:#000000;stroke-width:0.5;stroke-miterlimit:4;stroke-opacity:1;stroke-dasharray:none"
           d="m 347.4375,389.46875 0,11.8125 22.21875,0 0,-2.78125 13.21875,0 0,-5.53125 -13.21875,0 0,-3.5 -22.21875,0 z"
           id="path3932"
           inkscape:connector-curvature="0" />
        <path
           id="path3934"
           d="m 347.33769,389.569 0,11.8125 22.21875,0 0,-2.78125 13.21875,0 0,-5.53125 -13.21875,0 0,-3.5 -22.21875,0 z"
           style="opacity:0.98654713;fill:url(#linearGradient3962);fill-opacity:1;stroke-width:10;stroke-miterlimit:4;stroke-dasharray:none;filter:url(#filter3840)"
           inkscape:connector-curvature="0" />
      </g>
      <g
         transform="translate(-69.215443,32.159781)"
         id="g3936">
        <path
           inkscape:connector-curvature="0"
           style="fill:#ffffff;fill-opacity:1;stroke:#000000;stroke-width:0.5;stroke-miterlimit:4;stroke-opacity:1;stroke-dasharray:none"
           d="m 347.4375,389.46875 0,11.8125 22.21875,0 0,-2.78125 13.21875,0 0,-5.53125 -13.21875,0 0,-3.5 -22.21875,0 z"
           id="path3938" />
        <path
           id="path3940"
           d="m 347.33769,389.569 0,11.8125 22.21875,0 0,-2.78125 13.21875,0 0,-5.53125 -13.21875,0 0,-3.5 -22.21875,0 z"
           style="opacity:0.98654713;fill:url(#linearGradient3964);fill-opacity:1;stroke-width:10;stroke-miterlimit:4;stroke-dasharray:none;filter:url(#filter3840)"
           inkscape:connector-curvature="0" />
      </g>
      <g
         id="g3942"
         transform="translate(-69.215443,56.159781)">
        <path
           id="path3944"
           d="m 347.4375,389.46875 0,11.8125 22.21875,0 0,-2.78125 13.21875,0 0,-5.53125 -13.21875,0 0,-3.5 -22.21875,0 z"
           style="fill:#ffffff;fill-opacity:1;stroke:#000000;stroke-width:0.5;stroke-miterlimit:4;stroke-opacity:1;stroke-dasharray:none"
           inkscape:connector-curvature="0" />
        <path
           inkscape:connector-curvature="0"
           style="opacity:0.98654713;fill:url(#linearGradient3966);fill-opacity:1;stroke-width:10;stroke-miterlimit:4;stroke-dasharray:none;filter:url(#filter3840)"
           d="m 347.33769,389.569 0,11.8125 22.21875,0 0,-2.78125 13.21875,0 0,-5.53125 -13.21875,0 0,-3.5 -22.21875,0 z"
           id="path3946" />
      </g>
      <g
         transform="translate(-69.215443,82.159781)"
         id="g3948">
        <path
           inkscape:connector-curvature="0"
           style="fill:#ffffff;fill-opacity:1;stroke:#000000;stroke-width:0.5;stroke-miterlimit:4;stroke-opacity:1;stroke-dasharray:none"
           d="m 347.4375,389.46875 0,11.8125 22.21875,0 0,-2.78125 13.21875,0 0,-5.53125 -13.21875,0 0,-3.5 -22.21875,0 z"
           id="path3950" />
        <path
           id="path3952"
           d="m 347.33769,389.569 0,11.8125 22.21875,0 0,-2.78125 13.21875,0 0,-5.53125 -13.21875,0 0,-3.5 -22.21875,0 z"
           style="opacity:0.98654713;fill:url(#linearGradient3968);fill-opacity:1;stroke-width:10;stroke-miterlimit:4;stroke-dasharray:none;filter:url(#filter3840)"
           inkscape:connector-curvature="0" />
      </g>
      <g
         id="g3954"
         transform="translate(-69.215443,106.15978)">
        <path
           id="path3956"
           d="m 347.4375,389.46875 0,11.8125 22.21875,0 0,-2.78125 13.21875,0 0,-5.53125 -13.21875,0 0,-3.5 -22.21875,0 z"
           style="fill:#ffffff;fill-opacity:1;stroke:#000000;stroke-width:0.5;stroke-miterlimit:4;stroke-opacity:1;stroke-dasharray:none"
           inkscape:connector-curvature="0" />
        <path
           inkscape:connector-curvature="0"
           style="opacity:0.98654713;fill:url(#linearGradient3970);fill-opacity:1;stroke-width:10;stroke-miterlimit:4;stroke-dasharray:none;filter:url(#filter3840)"
           d="m 347.33769,389.569 0,11.8125 22.21875,0 0,-2.78125 13.21875,0 0,-5.53125 -13.21875,0 0,-3.5 -22.21875,0 z"
           id="path3958" />
      </g>
    </g>
    <g
       id="g3972"
       transform="matrix(0,-1,-1,0,641.99346,644.24933)">
      <g
         transform="translate(-69.215443,8.159781)"
         id="g3974">
        <path
           inkscape:connector-curvature="0"
           style="fill:#ffffff;fill-opacity:1;stroke:#000000;stroke-width:0.5;stroke-miterlimit:4;stroke-opacity:1;stroke-dasharray:none"
           d="m 347.4375,389.46875 0,11.8125 22.21875,0 0,-2.78125 13.21875,0 0,-5.53125 -13.21875,0 0,-3.5 -22.21875,0 z"
           id="path3976" />
        <path
           id="path3978"
           d="m 347.33769,389.569 0,11.8125 22.21875,0 0,-2.78125 13.21875,0 0,-5.53125 -13.21875,0 0,-3.5 -22.21875,0 z"
           style="opacity:0.98654713;fill:url(#linearGradient4010);fill-opacity:1;stroke-width:10;stroke-miterlimit:4;stroke-dasharray:none;filter:url(#filter3840)"
           inkscape:connector-curvature="0" />
      </g>
      <g
         transform="translate(-69.215443,-15.464936)"
         id="g3980">
        <path
           inkscape:connector-curvature="0"
           id="path3982"
           d="m 347.4375,389.46875 0,11.8125 22.21875,0 0,-2.78125 13.21875,0 0,-5.53125 -13.21875,0 0,-3.5 -22.21875,0 z"
           style="fill:#ffffff;fill-opacity:1;stroke:#000000;stroke-width:0.5;stroke-miterlimit:4;stroke-opacity:1;stroke-dasharray:none" />
        <path
           inkscape:connector-curvature="0"
           style="opacity:0.98654713;fill:url(#linearGradient4012);fill-opacity:1;stroke-width:10;stroke-miterlimit:4;stroke-dasharray:none;filter:url(#filter3840)"
           d="m 347.33769,389.569 0,11.8125 22.21875,0 0,-2.78125 13.21875,0 0,-5.53125 -13.21875,0 0,-3.5 -22.21875,0 z"
           id="path3984" />
      </g>
      <g
         id="g3986"
         transform="translate(-69.215443,32.159781)">
        <path
           id="path3988"
           d="m 347.4375,389.46875 0,11.8125 22.21875,0 0,-2.78125 13.21875,0 0,-5.53125 -13.21875,0 0,-3.5 -22.21875,0 z"
           style="fill:#ffffff;fill-opacity:1;stroke:#000000;stroke-width:0.5;stroke-miterlimit:4;stroke-opacity:1;stroke-dasharray:none"
           inkscape:connector-curvature="0" />
        <path
           inkscape:connector-curvature="0"
           style="opacity:0.98654713;fill:url(#linearGradient4014);fill-opacity:1;stroke-width:10;stroke-miterlimit:4;stroke-dasharray:none;filter:url(#filter3840)"
           d="m 347.33769,389.569 0,11.8125 22.21875,0 0,-2.78125 13.21875,0 0,-5.53125 -13.21875,0 0,-3.5 -22.21875,0 z"
           id="path3990" />
      </g>
      <g
         transform="translate(-69.215443,56.159781)"
         id="g3992">
        <path
           inkscape:connector-curvature="0"
           style="fill:#ffffff;fill-opacity:1;stroke:#000000;stroke-width:0.5;stroke-miterlimit:4;stroke-opacity:1;stroke-dasharray:none"
           d="m 347.4375,389.46875 0,11.8125 22.21875,0 0,-2.78125 13.21875,0 0,-5.53125 -13.21875,0 0,-3.5 -22.21875,0 z"
           id="path3994" />
        <path
           id="path3996"
           d="m 347.33769,389.569 0,11.8125 22.21875,0 0,-2.78125 13.21875,0 0,-5.53125 -13.21875,0 0,-3.5 -22.21875,0 z"
           style="opacity:0.98654713;fill:url(#linearGradient4016);fill-opacity:1;stroke-width:10;stroke-miterlimit:4;stroke-dasharray:none;filter:url(#filter3840)"
           inkscape:connector-curvature="0" />
      </g>
      <g
         id="g3998"
         transform="translate(-69.215443,82.159781)">
        <path
           id="path4000"
           d="m 347.4375,389.46875 0,11.8125 22.21875,0 0,-2.78125 13.21875,0 0,-5.53125 -13.21875,0 0,-3.5 -22.21875,0 z"
           style="fill:#ffffff;fill-opacity:1;stroke:#000000;stroke-width:0.5;stroke-miterlimit:4;stroke-opacity:1;stroke-dasharray:none"
           inkscape:connector-curvature="0" />
        <path
           inkscape:connector-curvature="0"
           style="opacity:0.98654713;fill:url(#linearGradient4018);fill-opacity:1;stroke-width:10;stroke-miterlimit:4;stroke-dasharray:none;filter:url(#filter3840)"
           d="m 347.33769,389.569 0,11.8125 22.21875,0 0,-2.78125 13.21875,0 0,-5.53125 -13.21875,0 0,-3.5 -22.21875,0 z"
           id="path4002" />
      </g>
      <g
         transform="translate(-69.215443,106.15978)"
         id="g4004">
        <path
           inkscape:connector-curvature="0"
           style="fill:#ffffff;fill-opacity:1;stroke:#000000;stroke-width:0.5;stroke-miterlimit:4;stroke-opacity:1;stroke-dasharray:none"
           d="m 347.4375,389.46875 0,11.8125 22.21875,0 0,-2.78125 13.21875,0 0,-5.53125 -13.21875,0 0,-3.5 -22.21875,0 z"
           id="path4006" />
        <path
           id="path4008"
           d="m 347.33769,389.569 0,11.8125 22.21875,0 0,-2.78125 13.21875,0 0,-5.53125 -13.21875,0 0,-3.5 -22.21875,0 z"
           style="opacity:0.98654713;fill:url(#linearGradient4020);fill-opacity:1;stroke-width:10;stroke-miterlimit:4;stroke-dasharray:none;filter:url(#filter3840)"
           inkscape:connector-curvature="0" />
      </g>
    </g>
    <rect
       style="fill:#000000;fill-opacity:1;stroke-width:10;stroke-miterlimit:4;stroke-dasharray:none"
       id="rect2985"
       width="150"
       height="150"
       x="128.57143"
       y="365.21933" />
    <rect
       y="366.36249"
       x="129.71429"
       height="150"
       width="150"
       id="rect2987"
       style="opacity:0.80269057;fill:url(#linearGradient3763);fill-opacity:1;stroke-width:10;stroke-miterlimit:4;stroke-dasharray:none;filter:url(#filter3769)" />
    <text
       sodipodi:linespacing="125%"
       id="text3777"
       y="504.13818"
       x="207.18173"
       style="font-size:28px;font-style:normal;font-weight:normal;line-height:125%;letter-spacing:0px;word-spacing:0px;fill:#000000;fill-opacity:1;stroke:none;filter:url(#filter3801);font-family:Sans"
       xml:space="preserve"><tspan
         style="font-weight:bold;fill:#000000;fill-opacity:1;-inkscape-font-specification:Sans Bold"
         y="504.13818"
         x="207.18173"
         id="tspan3779"
         sodipodi:role="line">CPU</tspan></text>
    <text
       xml:space="preserve"
       style="font-size:28px;font-style:normal;font-weight:normal;line-height:125%;letter-spacing:0px;word-spacing:0px;fill:#ffffff;fill-opacity:1;stroke:none;font-family:Sans"
       x="206.97183"
       y="503.99039"
       id="text3773"
       sodipodi:linespacing="125%"><tspan
         sodipodi:role="line"
         id="tspan3775"
         x="206.97183"
         y="503.99039"
         style="font-weight:bold;fill:#ffffff;fill-opacity:1;-inkscape-font-specification:Sans Bold">CPU</tspan></text>
  </g>
</svg>
